<svg width="75" height="93" viewBox="0 0 75 93" fill="none" xmlns="http://www.w3.org/2000/svg">
<path d="M39.9559 47.5814C39.9559 58.6128 31.0114 67.5554 19.9779 67.5554C8.94443 67.5554 0 58.6128 0 47.5814C0 36.5501 8.94443 27.6074 19.9779 27.6074C31.0114 27.6074 39.9559 36.5501 39.9559 47.5814ZM7.38253 47.5814C7.38253 54.5363 13.0217 60.1744 19.9779 60.1744C26.9342 60.1744 32.5733 54.5363 32.5733 47.5814C32.5733 40.6265 26.9342 34.9885 19.9779 34.9885C13.0217 34.9885 7.38253 40.6265 7.38253 47.5814Z" fill="#232BF9"/>
<path d="M22.7003 63.1835C23.093 65.4339 21.5753 67.6221 19.2923 67.5437C17.7914 67.4921 16.2967 67.2714 14.837 66.8828C12.0399 66.1381 9.43798 64.7945 7.21148 62.9451C4.98497 61.0957 3.18703 58.7847 1.94209 56.172C0.697149 53.5592 0.034957 50.7072 0.00134677 47.8134C-0.0322635 44.9195 0.563511 42.0529 1.74743 39.412C2.93135 36.771 4.67514 34.4189 6.85809 32.5183C9.04104 30.6177 11.611 29.2141 14.3901 28.4046C15.8404 27.9822 17.3296 27.7268 18.8289 27.6405C21.1094 27.5091 22.6775 29.6614 22.3372 31.9203C21.997 34.179 19.8452 35.6594 17.6083 36.1217C17.3046 36.1845 17.003 36.2594 16.7042 36.3465C15.0761 36.8207 13.5704 37.643 12.2915 38.7565C11.0126 39.87 9.99098 41.248 9.29737 42.7952C8.60375 44.3425 8.25471 46.0219 8.2744 47.7173C8.29409 49.4127 8.68205 51.0836 9.41141 52.6143C10.1408 54.145 11.1941 55.4989 12.4985 56.5824C13.803 57.6659 15.3273 58.4531 16.9661 58.8894C17.2668 58.9694 17.5701 59.0373 17.8752 59.0931C20.1222 59.5033 22.3077 60.9334 22.7003 63.1835Z" fill="#DC24B4"/>
<path d="M43.3711 82.4055C44.8572 83.412 45.2629 85.4555 44.0287 86.7587C42.6794 88.1836 41.1232 89.4063 39.4074 90.3831C36.7468 91.8979 33.7735 92.781 30.7172 92.9642C27.6609 93.1474 24.6034 92.6258 21.7808 91.4397C19.9605 90.6748 18.2694 89.6467 16.7594 88.3932C15.3784 87.2468 15.537 85.1694 16.8922 83.9927C18.247 82.8162 20.2832 83.0015 21.7492 84.036C22.5429 84.5961 23.3975 85.0706 24.299 85.4495C26.2034 86.2497 28.2662 86.6016 30.3283 86.478C32.3903 86.3544 34.3963 85.7586 36.1915 84.7366C37.0412 84.2529 37.8329 83.6797 38.5539 83.0289C39.8859 81.8266 41.8855 81.3994 43.3711 82.4055Z" fill="#232BF9"/>
<rect x="38.1743" y="18.8291" width="6.87139" height="68.5732" rx="3.4357" fill="#232BF9"/>
<path d="M39.4275 25.2488C38.1733 23.4579 38.4165 21.124 39.9709 20.0359C41.5252 18.9477 43.802 19.5174 45.0562 21.3083L72.7291 60.8214C73.9833 62.6123 73.74 64.9463 72.1857 66.0344C70.6314 67.1226 68.3546 66.5528 67.1003 64.7619L39.4275 25.2488Z" fill="#232BF9"/>
<path d="M67.187 21.5014C67.187 19.6039 68.7252 18.0657 70.6227 18.0657C72.5202 18.0657 74.0584 19.6039 74.0584 21.5014V63.3564C74.0584 65.2539 72.5202 66.7921 70.6227 66.7921C68.7252 66.7921 67.187 65.2539 67.187 63.3564V21.5014Z" fill="#232BF9"/>
<path d="M39.3196 23.2186C39.3196 21.9185 40.3735 20.8645 41.6737 20.8645C42.9738 20.8645 44.0278 21.9185 44.0278 23.2186V67.2368C44.0278 68.5369 42.9738 69.5909 41.6737 69.5909C40.3735 69.5909 39.3196 68.5369 39.3196 67.2368V23.2186Z" fill="#99BD27"/>
<ellipse cx="41.6102" cy="4.4528" rx="4.45368" ry="4.4528" fill="#99BD27"/>
<path d="M38.7858 81.55C39.0961 81.55 39.3514 81.8026 39.3123 82.1105C39.2135 82.8895 38.9098 83.6321 38.4277 84.2603C37.9456 84.8887 37.3068 85.3743 36.5798 85.6716C36.2926 85.789 35.9826 85.6079 35.9022 85.3083C35.8218 85.0085 36.0025 84.7046 36.2845 84.575C36.7742 84.35 37.2046 84.0083 37.536 83.5764C37.8673 83.1445 38.086 82.6404 38.1765 82.1094C38.2287 81.8034 38.4754 81.55 38.7858 81.55Z" fill="#232BF9"/>
</svg>
